<svg width="1336" height="439" viewBox="0 0 1336 439" fill="none" xmlns="http://www.w3.org/2000/svg">
<g clip-path="url(#clip0_1064_2)">
<mask id="mask0_1064_2" style="mask-type:luminance" maskUnits="userSpaceOnUse" x="0" y="-100" width="1336" height="514">
<path d="M1336 -100H0V414H1336V-100Z" fill="white"/>
</mask>
<g mask="url(#mask0_1064_2)">
<path d="M1193 220L131 220" stroke="black" stroke-width="16"/>
</g>
<path d="M331.092 40.96L332.292 29.84H331.812L328.372 38.8L316.452 59.68H312.932L300.372 38.72L296.852 29.84H296.452L298.052 40.88V70H287.652V14H297.652L312.612 39.6L315.252 46H315.572L317.972 39.44L332.132 14H342.052V70H331.092V40.96ZM387.076 70H351.636V14H362.596V60.24H387.076V70ZM430.41 27.04C430.41 28.4267 430.223 29.8133 429.85 31.2C429.53 32.5867 428.97 33.8667 428.17 35.04C427.37 36.16 426.33 37.1733 425.05 38.08C423.77 38.9333 422.223 39.5733 420.41 40V40.48C422.01 40.7467 423.53 41.2 424.97 41.84C426.41 42.48 427.663 43.36 428.73 44.48C429.796 45.6 430.623 46.96 431.21 48.56C431.85 50.16 432.17 52.0533 432.17 54.24C432.17 57.12 431.556 59.6267 430.33 61.76C429.103 63.84 427.45 65.5467 425.37 66.88C423.343 68.2133 421.023 69.2 418.41 69.84C415.796 70.48 413.103 70.8 410.33 70.8C409.423 70.8 408.25 70.8 406.81 70.8C405.423 70.8 403.903 70.7467 402.25 70.64C400.65 70.5867 398.996 70.48 397.29 70.32C395.636 70.16 394.116 69.92 392.73 69.6V14.4C393.743 14.24 394.89 14.08 396.17 13.92C397.503 13.76 398.916 13.6267 400.41 13.52C401.903 13.4133 403.423 13.3333 404.97 13.28C406.57 13.2267 408.143 13.2 409.69 13.2C412.303 13.2 414.836 13.4133 417.29 13.84C419.796 14.2133 422.01 14.9067 423.93 15.92C425.903 16.9333 427.476 18.3467 428.65 20.16C429.823 21.9733 430.41 24.2667 430.41 27.04ZM410.41 61.76C411.743 61.76 413.023 61.6 414.25 61.28C415.53 60.96 416.65 60.48 417.61 59.84C418.57 59.1467 419.343 58.2933 419.93 57.28C420.516 56.2667 420.81 55.0667 420.81 53.68C420.81 51.92 420.463 50.5333 419.77 49.52C419.076 48.5067 418.17 47.7333 417.05 47.2C415.93 46.6133 414.676 46.24 413.29 46.08C411.903 45.92 410.516 45.84 409.13 45.84H403.29V61.28C403.556 61.3867 403.983 61.4667 404.57 61.52C405.156 61.5733 405.77 61.6267 406.41 61.68C407.103 61.68 407.796 61.7067 408.49 61.76C409.236 61.76 409.876 61.76 410.41 61.76ZM406.81 37.52C407.556 37.52 408.41 37.4933 409.37 37.44C410.383 37.3867 411.21 37.3067 411.85 37.2C413.876 36.56 415.61 35.6 417.05 34.32C418.543 33.04 419.29 31.36 419.29 29.28C419.29 27.8933 419.023 26.7467 418.49 25.84C417.956 24.9333 417.236 24.2133 416.33 23.68C415.476 23.1467 414.49 22.7733 413.37 22.56C412.25 22.3467 411.076 22.24 409.85 22.24C408.463 22.24 407.183 22.2667 406.01 22.32C404.836 22.3733 403.93 22.4533 403.29 22.56V37.52H406.81ZM497.91 27.04C497.91 28.4267 497.723 29.8133 497.35 31.2C497.03 32.5867 496.47 33.8667 495.67 35.04C494.87 36.16 493.83 37.1733 492.55 38.08C491.27 38.9333 489.723 39.5733 487.91 40V40.48C489.51 40.7467 491.03 41.2 492.47 41.84C493.91 42.48 495.163 43.36 496.23 44.48C497.296 45.6 498.123 46.96 498.71 48.56C499.35 50.16 499.67 52.0533 499.67 54.24C499.67 57.12 499.056 59.6267 497.83 61.76C496.603 63.84 494.95 65.5467 492.87 66.88C490.843 68.2133 488.523 69.2 485.91 69.84C483.296 70.48 480.603 70.8 477.83 70.8C476.923 70.8 475.75 70.8 474.31 70.8C472.923 70.8 471.403 70.7467 469.75 70.64C468.15 70.5867 466.496 70.48 464.79 70.32C463.136 70.16 461.616 69.92 460.23 69.6V14.4C461.243 14.24 462.39 14.08 463.67 13.92C465.003 13.76 466.416 13.6267 467.91 13.52C469.403 13.4133 470.923 13.3333 472.47 13.28C474.07 13.2267 475.643 13.2 477.19 13.2C479.803 13.2 482.336 13.4133 484.79 13.84C487.296 14.2133 489.51 14.9067 491.43 15.92C493.403 16.9333 494.976 18.3467 496.15 20.16C497.323 21.9733 497.91 24.2667 497.91 27.04ZM477.91 61.76C479.243 61.76 480.523 61.6 481.75 61.28C483.03 60.96 484.15 60.48 485.11 59.84C486.07 59.1467 486.843 58.2933 487.43 57.28C488.016 56.2667 488.31 55.0667 488.31 53.68C488.31 51.92 487.963 50.5333 487.27 49.52C486.576 48.5067 485.67 47.7333 484.55 47.2C483.43 46.6133 482.176 46.24 480.79 46.08C479.403 45.92 478.016 45.84 476.63 45.84H470.79V61.28C471.056 61.3867 471.483 61.4667 472.07 61.52C472.656 61.5733 473.27 61.6267 473.91 61.68C474.603 61.68 475.296 61.7067 475.99 61.76C476.736 61.76 477.376 61.76 477.91 61.76ZM474.31 37.52C475.056 37.52 475.91 37.4933 476.87 37.44C477.883 37.3867 478.71 37.3067 479.35 37.2C481.376 36.56 483.11 35.6 484.55 34.32C486.043 33.04 486.79 31.36 486.79 29.28C486.79 27.8933 486.523 26.7467 485.99 25.84C485.456 24.9333 484.736 24.2133 483.83 23.68C482.976 23.1467 481.99 22.7733 480.87 22.56C479.75 22.3467 478.576 22.24 477.35 22.24C475.963 22.24 474.683 22.2667 473.51 22.32C472.336 22.3733 471.43 22.4533 470.79 22.56V37.52H474.31ZM535.095 57.6H517.895L513.655 70H502.695L522.855 13.6H530.935L551.095 70H539.575L535.095 57.6ZM520.695 48.8H532.695L528.535 36.32L526.855 27.52H526.455L524.775 36.4L520.695 48.8ZM589.443 23.76H573.123V70H562.163V23.76H545.763V14H589.443V23.76ZM636.474 23.76H620.154V70H609.194V23.76H592.794V14H636.474V23.76ZM643.303 14H654.263V70H643.303V14ZM678.915 40.8L674.515 32H674.115L675.395 40.8V70H664.995V13.6H672.995L694.195 43.44L698.435 52H698.835L697.555 43.44V14H707.955V70.4H699.955L678.915 40.8ZM737.333 40.8H758.213V65.76C755.973 67.6267 753.28 68.9867 750.133 69.84C747.04 70.6933 743.973 71.12 740.933 71.12C737.36 71.12 734.027 70.56 730.933 69.44C727.893 68.32 725.253 66.5867 723.013 64.24C720.773 61.84 719.013 58.8 717.733 55.12C716.453 51.44 715.813 47.0667 715.813 42C715.813 36.72 716.56 32.24 718.053 28.56C719.6 24.8267 721.6 21.8133 724.053 19.52C726.56 17.1733 729.36 15.4933 732.453 14.48C735.547 13.4133 738.693 12.88 741.893 12.88C745.093 12.88 747.893 13.12 750.293 13.6C752.747 14.08 754.693 14.5867 756.133 15.12L753.893 24.32C752.56 23.7867 751.067 23.3867 749.413 23.12C747.76 22.8 745.653 22.64 743.093 22.64C740.8 22.64 738.693 22.9867 736.773 23.68C734.853 24.3733 733.173 25.52 731.733 27.12C730.347 28.6667 729.253 30.6667 728.453 33.12C727.707 35.5733 727.333 38.56 727.333 42.08C727.333 45.44 727.707 48.3467 728.453 50.8C729.2 53.2 730.24 55.2 731.573 56.8C732.907 58.3467 734.453 59.4933 736.213 60.24C738.027 60.9867 739.947 61.36 741.973 61.36C743.36 61.36 744.72 61.2 746.053 60.88C747.387 60.5067 748.507 59.9733 749.413 59.28V48.72L737.333 47.44V40.8ZM810.718 54.96C810.718 53.2533 810.078 51.8667 808.798 50.8C807.571 49.7333 805.998 48.7733 804.078 47.92C802.211 47.0133 800.158 46.1067 797.918 45.2C795.731 44.24 793.678 43.0933 791.758 41.76C789.891 40.3733 788.318 38.6667 787.038 36.64C785.811 34.6133 785.198 32.0267 785.198 28.88C785.198 26.16 785.651 23.8133 786.558 21.84C787.464 19.8133 788.744 18.1333 790.398 16.8C792.104 15.4667 794.104 14.48 796.398 13.84C798.691 13.2 801.251 12.88 804.078 12.88C807.331 12.88 810.398 13.1733 813.278 13.76C816.158 14.2933 818.531 15.0933 820.398 16.16L816.958 25.36C815.784 24.6133 814.024 23.9467 811.678 23.36C809.331 22.72 806.798 22.4 804.078 22.4C801.518 22.4 799.544 22.9067 798.158 23.92C796.824 24.9333 796.158 26.2933 796.158 28C796.158 29.6 796.771 30.9333 797.998 32C799.278 33.0667 800.851 34.0533 802.718 34.96C804.638 35.8667 806.691 36.8 808.878 37.76C811.118 38.72 813.171 39.8933 815.038 41.28C816.958 42.6133 818.531 44.2933 819.758 46.32C821.038 48.2933 821.678 50.7733 821.678 53.76C821.678 56.7467 821.171 59.3333 820.158 61.52C819.198 63.6533 817.811 65.44 815.998 66.88C814.238 68.32 812.078 69.3867 809.518 70.08C807.011 70.7733 804.238 71.12 801.198 71.12C797.198 71.12 793.678 70.7467 790.638 70C787.598 69.2533 785.358 68.5067 783.918 67.76L787.438 58.4C788.024 58.72 788.771 59.0667 789.678 59.44C790.638 59.8133 791.704 60.16 792.878 60.48C794.051 60.8 795.278 61.0667 796.558 61.28C797.891 61.4933 799.251 61.6 800.638 61.6C803.891 61.6 806.371 61.0667 808.078 60C809.838 58.88 810.718 57.2 810.718 54.96ZM866.9 67.68C865.193 68.9067 863.006 69.7867 860.34 70.32C857.726 70.8533 855.033 71.12 852.26 71.12C848.9 71.12 845.7 70.6133 842.66 69.6C839.673 68.5333 837.033 66.8533 834.74 64.56C832.446 62.2133 830.606 59.2 829.22 55.52C827.886 51.7867 827.22 47.28 827.22 42C827.22 36.5067 827.966 31.92 829.46 28.24C831.006 24.5067 832.98 21.52 835.38 19.28C837.833 16.9867 840.553 15.36 843.54 14.4C846.526 13.3867 849.513 12.88 852.5 12.88C855.7 12.88 858.393 13.0933 860.58 13.52C862.82 13.9467 864.66 14.4533 866.1 15.04L863.94 24.32C862.713 23.7333 861.246 23.3067 859.54 23.04C857.886 22.7733 855.86 22.64 853.46 22.64C849.033 22.64 845.46 24.2133 842.74 27.36C840.073 30.5067 838.74 35.3867 838.74 42C838.74 44.88 839.06 47.52 839.7 49.92C840.34 52.2667 841.3 54.2933 842.58 56C843.913 57.6533 845.54 58.96 847.46 59.92C849.433 60.8267 851.7 61.28 854.26 61.28C856.66 61.28 858.686 61.04 860.34 60.56C861.993 60.08 863.433 59.4667 864.66 58.72L866.9 67.68ZM869.251 42C869.251 32.6667 871.304 25.4933 875.411 20.48C879.518 15.4133 885.384 12.88 893.011 12.88C897.011 12.88 900.504 13.5733 903.491 14.96C906.478 16.3467 908.958 18.32 910.931 20.88C912.904 23.44 914.371 26.5067 915.331 30.08C916.291 33.6533 916.771 37.6267 916.771 42C916.771 51.3333 914.691 58.5333 910.531 63.6C906.424 68.6133 900.584 71.12 893.011 71.12C888.958 71.12 885.438 70.4267 882.451 69.04C879.464 67.6533 876.984 65.68 875.011 63.12C873.091 60.56 871.651 57.4933 870.691 53.92C869.731 50.3467 869.251 46.3733 869.251 42ZM880.771 42C880.771 44.8267 881.011 47.44 881.491 49.84C881.971 52.1867 882.691 54.2133 883.651 55.92C884.664 57.6267 885.944 58.96 887.491 59.92C889.038 60.88 890.878 61.36 893.011 61.36C896.904 61.36 899.918 59.84 902.051 56.8C904.184 53.76 905.251 48.8267 905.251 42C905.251 39.28 905.011 36.7467 904.531 34.4C904.104 32.0533 903.411 30 902.451 28.24C901.491 26.48 900.238 25.12 898.691 24.16C897.144 23.1467 895.251 22.64 893.011 22.64C889.118 22.64 886.104 24.2133 883.971 27.36C881.838 30.4533 880.771 35.3333 880.771 42ZM924.605 14.56C925.831 14.3467 927.138 14.16 928.525 14C929.965 13.7867 931.378 13.6267 932.765 13.52C934.205 13.4133 935.591 13.3333 936.925 13.28C938.258 13.2267 939.485 13.2 940.605 13.2C943.218 13.2 945.778 13.44 948.285 13.92C950.845 14.4 953.111 15.2267 955.085 16.4C957.111 17.5733 958.711 19.2 959.885 21.28C961.111 23.3067 961.725 25.8667 961.725 28.96C961.725 33.5467 960.658 37.28 958.525 40.16C956.391 43.04 953.538 45.04 949.965 46.16L953.885 48.64L966.685 70H954.045L941.325 48.08L935.565 47.04V70H924.605V14.56ZM941.405 22.96C940.285 22.96 939.165 22.9867 938.045 23.04C936.978 23.0933 936.151 23.2 935.565 23.36V39.6H940.205C943.245 39.6 945.671 38.9067 947.485 37.52C949.298 36.1333 950.205 33.84 950.205 30.64C950.205 28.24 949.458 26.3733 947.965 25.04C946.471 23.6533 944.285 22.96 941.405 22.96ZM972.73 14H1005.93V23.76H983.69V36.8H1003.93V46.56H983.69V60.24H1006.33V70H972.73V14ZM1038.69 54.96C1038.69 53.2533 1038.05 51.8667 1036.77 50.8C1035.54 49.7333 1033.97 48.7733 1032.05 47.92C1030.18 47.0133 1028.13 46.1067 1025.89 45.2C1023.7 44.24 1021.65 43.0933 1019.73 41.76C1017.86 40.3733 1016.29 38.6667 1015.01 36.64C1013.78 34.6133 1013.17 32.0267 1013.17 28.88C1013.17 26.16 1013.62 23.8133 1014.53 21.84C1015.43 19.8133 1016.71 18.1333 1018.37 16.8C1020.07 15.4667 1022.07 14.48 1024.37 13.84C1026.66 13.2 1029.22 12.88 1032.05 12.88C1035.3 12.88 1038.37 13.1733 1041.25 13.76C1044.13 14.2933 1046.5 15.0933 1048.37 16.16L1044.93 25.36C1043.75 24.6133 1041.99 23.9467 1039.65 23.36C1037.3 22.72 1034.77 22.4 1032.05 22.4C1029.49 22.4 1027.51 22.9067 1026.13 23.92C1024.79 24.9333 1024.13 26.2933 1024.13 28C1024.13 29.6 1024.74 30.9333 1025.97 32C1027.25 33.0667 1028.82 34.0533 1030.69 34.96C1032.61 35.8667 1034.66 36.8 1036.85 37.76C1039.09 38.72 1041.14 39.8933 1043.01 41.28C1044.93 42.6133 1046.5 44.2933 1047.73 46.32C1049.01 48.2933 1049.65 50.7733 1049.65 53.76C1049.65 56.7467 1049.14 59.3333 1048.13 61.52C1047.17 63.6533 1045.78 65.44 1043.97 66.88C1042.21 68.32 1040.05 69.3867 1037.49 70.08C1034.98 70.7733 1032.21 71.12 1029.17 71.12C1025.17 71.12 1021.65 70.7467 1018.61 70C1015.57 69.2533 1013.33 68.5067 1011.89 67.76L1015.41 58.4C1015.99 58.72 1016.74 59.0667 1017.65 59.44C1018.61 59.8133 1019.67 60.16 1020.85 60.48C1022.02 60.8 1023.25 61.0667 1024.53 61.28C1025.86 61.4933 1027.22 61.6 1028.61 61.6C1031.86 61.6 1034.34 61.0667 1036.05 60C1037.81 58.88 1038.69 57.2 1038.69 54.96Z" fill="black"/>
<path d="M483.667 345.834H467.795V364H459.301V320.6H467.795V338.27H483.667V320.6H492.161V364H483.667V345.834ZM499.686 321.034C500.636 320.869 501.649 320.724 502.724 320.6C503.84 320.435 504.935 320.311 506.01 320.228C507.126 320.145 508.2 320.083 509.234 320.042C510.267 320.001 511.218 319.98 512.086 319.98C514.111 319.98 516.095 320.166 518.038 320.538C520.022 320.91 521.778 321.551 523.308 322.46C524.878 323.369 526.118 324.63 527.028 326.242C527.978 327.813 528.454 329.797 528.454 332.194C528.454 335.749 527.627 338.642 525.974 340.874C524.32 343.106 522.109 344.656 519.34 345.524L522.378 347.446L532.298 364H522.502L512.644 347.012L508.18 346.206V364H499.686V321.034ZM512.706 327.544C511.838 327.544 510.97 327.565 510.102 327.606C509.275 327.647 508.634 327.73 508.18 327.854V340.44H511.776C514.132 340.44 516.012 339.903 517.418 338.828C518.823 337.753 519.526 335.976 519.526 333.496C519.526 331.636 518.947 330.189 517.79 329.156C516.632 328.081 514.938 327.544 512.706 327.544ZM549.631 355.444C549.631 354.617 549.279 353.956 548.577 353.46C547.874 352.964 547.006 352.509 545.973 352.096C544.939 351.683 543.803 351.269 542.563 350.856C541.323 350.401 540.186 349.802 539.153 349.058C538.119 348.273 537.251 347.301 536.549 346.144C535.846 344.945 535.495 343.416 535.495 341.556C535.495 338.497 536.404 336.162 538.223 334.55C540.041 332.938 542.666 332.132 546.097 332.132C548.453 332.132 550.581 332.38 552.483 332.876C554.384 333.372 555.872 333.93 556.947 334.55L555.149 340.378C554.198 340.006 552.999 339.613 551.553 339.2C550.106 338.787 548.639 338.58 547.151 338.58C544.753 338.58 543.555 339.51 543.555 341.37C543.555 342.114 543.906 342.713 544.609 343.168C545.311 343.623 546.179 344.057 547.213 344.47C548.246 344.842 549.383 345.255 550.623 345.71C551.863 346.165 552.999 346.764 554.033 347.508C555.066 348.211 555.934 349.141 556.637 350.298C557.339 351.455 557.691 352.943 557.691 354.762C557.691 357.903 556.678 360.383 554.653 362.202C552.669 363.979 549.672 364.868 545.663 364.868C543.472 364.868 541.405 364.579 539.463 364C537.561 363.463 536.011 362.822 534.813 362.078L537.045 356.064C537.995 356.601 539.256 357.139 540.827 357.676C542.397 358.172 544.009 358.42 545.663 358.42C546.861 358.42 547.812 358.193 548.515 357.738C549.259 357.283 549.631 356.519 549.631 355.444Z" fill="black"/>
<path d="M72.6278 318.164H59.9798V354H51.4858V318.164H38.7758V310.6H72.6278V318.164ZM77.052 311.034C78.0027 310.869 79.0154 310.724 80.09 310.6C81.206 310.435 82.3014 310.311 83.376 310.228C84.492 310.145 85.5667 310.083 86.6 310.042C87.6334 310.001 88.584 309.98 89.452 309.98C91.4774 309.98 93.4614 310.166 95.404 310.538C97.388 310.91 99.1447 311.551 100.674 312.46C102.245 313.369 103.485 314.63 104.394 316.242C105.345 317.813 105.82 319.797 105.82 322.194C105.82 325.749 104.993 328.642 103.34 330.874C101.687 333.106 99.4754 334.656 96.706 335.524L99.744 337.446L109.664 354H99.868L90.01 337.012L85.546 336.206V354H77.052V311.034ZM90.072 317.544C89.204 317.544 88.336 317.565 87.468 317.606C86.6414 317.647 86.0007 317.73 85.546 317.854V330.44H89.142C91.498 330.44 93.3787 329.903 94.784 328.828C96.1894 327.753 96.892 325.976 96.892 323.496C96.892 321.636 96.3134 320.189 95.156 319.156C93.9987 318.081 92.304 317.544 90.072 317.544ZM115.217 310.6H123.711V354H115.217V310.6ZM132.029 311.034C133.765 310.703 135.666 310.455 137.733 310.29C139.841 310.083 141.928 309.98 143.995 309.98C146.144 309.98 148.293 310.166 150.443 310.538C152.633 310.869 154.597 311.571 156.333 312.646C158.069 313.679 159.474 315.147 160.549 317.048C161.665 318.908 162.223 321.347 162.223 324.364C162.223 327.092 161.747 329.407 160.797 331.308C159.846 333.168 158.585 334.697 157.015 335.896C155.444 337.095 153.646 337.963 151.621 338.5C149.637 339.037 147.57 339.306 145.421 339.306C145.214 339.306 144.883 339.306 144.429 339.306C143.974 339.306 143.499 339.306 143.003 339.306C142.507 339.265 142.011 339.223 141.515 339.182C141.06 339.141 140.729 339.099 140.523 339.058V354H132.029V311.034ZM144.677 317.296C143.85 317.296 143.065 317.337 142.321 317.42C141.577 317.461 140.977 317.523 140.523 317.606V331.68C140.688 331.721 140.936 331.763 141.267 331.804C141.597 331.845 141.949 331.887 142.321 331.928C142.693 331.928 143.044 331.928 143.375 331.928C143.747 331.928 144.015 331.928 144.181 331.928C145.297 331.928 146.392 331.825 147.467 331.618C148.583 331.411 149.575 331.039 150.443 330.502C151.311 329.923 151.993 329.138 152.489 328.146C153.026 327.154 153.295 325.852 153.295 324.24C153.295 322.876 153.047 321.76 152.551 320.892C152.055 319.983 151.393 319.259 150.567 318.722C149.781 318.185 148.872 317.813 147.839 317.606C146.805 317.399 145.751 317.296 144.677 317.296ZM194.975 354H167.509V310.6H176.003V346.436H194.975V354ZM199.357 310.6H225.087V318.164H207.851V328.27H223.537V335.834H207.851V346.436H225.397V354H199.357V310.6ZM250.473 342.344C250.473 341.021 249.977 339.947 248.985 339.12C248.035 338.293 246.815 337.549 245.327 336.888C243.881 336.185 242.289 335.483 240.553 334.78C238.859 334.036 237.267 333.147 235.779 332.114C234.333 331.039 233.113 329.717 232.121 328.146C231.171 326.575 230.695 324.571 230.695 322.132C230.695 320.024 231.047 318.205 231.749 316.676C232.452 315.105 233.444 313.803 234.725 312.77C236.048 311.737 237.598 310.972 239.375 310.476C241.153 309.98 243.137 309.732 245.327 309.732C247.849 309.732 250.225 309.959 252.457 310.414C254.689 310.827 256.529 311.447 257.975 312.274L255.309 319.404C254.4 318.825 253.036 318.309 251.217 317.854C249.399 317.358 247.435 317.11 245.327 317.11C243.343 317.11 241.814 317.503 240.739 318.288C239.706 319.073 239.189 320.127 239.189 321.45C239.189 322.69 239.665 323.723 240.615 324.55C241.607 325.377 242.827 326.141 244.273 326.844C245.761 327.547 247.353 328.27 249.047 329.014C250.783 329.758 252.375 330.667 253.821 331.742C255.309 332.775 256.529 334.077 257.479 335.648C258.471 337.177 258.967 339.099 258.967 341.414C258.967 343.729 258.575 345.733 257.789 347.428C257.045 349.081 255.971 350.466 254.565 351.582C253.201 352.698 251.527 353.525 249.543 354.062C247.601 354.599 245.451 354.868 243.095 354.868C239.995 354.868 237.267 354.579 234.911 354C232.555 353.421 230.819 352.843 229.703 352.264L232.431 345.01C232.886 345.258 233.465 345.527 234.167 345.816C234.911 346.105 235.738 346.374 236.647 346.622C237.557 346.87 238.507 347.077 239.499 347.242C240.533 347.407 241.587 347.49 242.661 347.49C245.183 347.49 247.105 347.077 248.427 346.25C249.791 345.382 250.473 344.08 250.473 342.344Z" fill="black"/>
<path d="M731.572 310.6C732.44 310.476 733.411 310.373 734.486 310.29C735.602 310.207 736.738 310.145 737.896 310.104C739.053 310.063 740.169 310.042 741.244 310.042C742.36 310.001 743.352 309.98 744.22 309.98C748.064 309.98 751.35 310.517 754.078 311.592C756.806 312.667 759.017 314.175 760.712 316.118C762.406 318.061 763.646 320.375 764.432 323.062C765.217 325.749 765.61 328.704 765.61 331.928C765.61 334.863 765.238 337.694 764.494 340.422C763.75 343.15 762.51 345.568 760.774 347.676C759.038 349.784 756.744 351.479 753.892 352.76C751.081 354.041 747.588 354.682 743.414 354.682C742.752 354.682 741.864 354.661 740.748 354.62C739.673 354.579 738.536 354.517 737.338 354.434C736.18 354.393 735.064 354.331 733.99 354.248C732.915 354.207 732.109 354.145 731.572 354.062V310.6ZM744.902 317.544C743.992 317.544 743.062 317.565 742.112 317.606C741.202 317.647 740.52 317.709 740.066 317.792V346.87C740.231 346.911 740.5 346.953 740.872 346.994C741.285 346.994 741.719 347.015 742.174 347.056C742.628 347.056 743.062 347.077 743.476 347.118C743.889 347.118 744.199 347.118 744.406 347.118C746.803 347.118 748.787 346.705 750.358 345.878C751.97 345.01 753.23 343.873 754.14 342.468C755.09 341.063 755.752 339.451 756.124 337.632C756.496 335.772 756.682 333.871 756.682 331.928C756.682 330.233 756.516 328.539 756.186 326.844C755.855 325.108 755.235 323.558 754.326 322.194C753.458 320.83 752.259 319.714 750.73 318.846C749.2 317.978 747.258 317.544 744.902 317.544ZM770.35 332.3C770.35 325.067 771.941 319.507 775.124 315.622C778.307 311.695 782.853 309.732 788.764 309.732C791.864 309.732 794.571 310.269 796.886 311.344C799.201 312.419 801.123 313.948 802.652 315.932C804.181 317.916 805.318 320.293 806.062 323.062C806.806 325.831 807.178 328.911 807.178 332.3C807.178 339.533 805.566 345.113 802.342 349.04C799.159 352.925 794.633 354.868 788.764 354.868C785.623 354.868 782.895 354.331 780.58 353.256C778.265 352.181 776.343 350.652 774.814 348.668C773.326 346.684 772.21 344.307 771.466 341.538C770.722 338.769 770.35 335.689 770.35 332.3ZM779.278 332.3C779.278 334.491 779.464 336.516 779.836 338.376C780.208 340.195 780.766 341.765 781.51 343.088C782.295 344.411 783.287 345.444 784.486 346.188C785.685 346.932 787.111 347.304 788.764 347.304C791.781 347.304 794.117 346.126 795.77 343.77C797.423 341.414 798.25 337.591 798.25 332.3C798.25 330.192 798.064 328.229 797.692 326.41C797.361 324.591 796.824 323 796.08 321.636C795.336 320.272 794.365 319.218 793.166 318.474C791.967 317.689 790.5 317.296 788.764 317.296C785.747 317.296 783.411 318.515 781.758 320.954C780.105 323.351 779.278 327.133 779.278 332.3ZM836.809 310.6H844.869V338.624C844.869 341.435 844.497 343.853 843.753 345.878C843.009 347.903 841.976 349.577 840.653 350.9C839.331 352.223 837.719 353.194 835.817 353.814C833.916 354.434 831.829 354.744 829.555 354.744C818.561 354.744 813.063 349.722 813.063 339.678V310.6H821.557V338.004C821.557 339.699 821.702 341.145 821.991 342.344C822.322 343.501 822.818 344.452 823.479 345.196C824.141 345.899 824.967 346.415 825.959 346.746C826.951 347.035 828.109 347.18 829.431 347.18C832.035 347.18 833.916 346.457 835.073 345.01C836.231 343.563 836.809 341.228 836.809 338.004V310.6ZM881.322 320.706C881.322 321.781 881.178 322.855 880.888 323.93C880.64 325.005 880.206 325.997 879.586 326.906C878.966 327.774 878.16 328.559 877.168 329.262C876.176 329.923 874.978 330.419 873.572 330.75V331.122C874.812 331.329 875.99 331.68 877.106 332.176C878.222 332.672 879.194 333.354 880.02 334.222C880.847 335.09 881.488 336.144 881.942 337.384C882.438 338.624 882.686 340.091 882.686 341.786C882.686 344.018 882.211 345.961 881.26 347.614C880.31 349.226 879.028 350.549 877.416 351.582C875.846 352.615 874.048 353.38 872.022 353.876C869.997 354.372 867.91 354.62 865.76 354.62C865.058 354.62 864.148 354.62 863.032 354.62C861.958 354.62 860.78 354.579 859.498 354.496C858.258 354.455 856.977 354.372 855.654 354.248C854.373 354.124 853.195 353.938 852.12 353.69V310.91C852.906 310.786 853.794 310.662 854.786 310.538C855.82 310.414 856.915 310.311 858.072 310.228C859.23 310.145 860.408 310.083 861.606 310.042C862.846 310.001 864.066 309.98 865.264 309.98C867.29 309.98 869.253 310.145 871.154 310.476C873.097 310.765 874.812 311.303 876.3 312.088C877.83 312.873 879.049 313.969 879.958 315.374C880.868 316.779 881.322 318.557 881.322 320.706ZM865.822 347.614C866.856 347.614 867.848 347.49 868.798 347.242C869.79 346.994 870.658 346.622 871.402 346.126C872.146 345.589 872.746 344.927 873.2 344.142C873.655 343.357 873.882 342.427 873.882 341.352C873.882 339.988 873.614 338.913 873.076 338.128C872.539 337.343 871.836 336.743 870.968 336.33C870.1 335.875 869.129 335.586 868.054 335.462C866.98 335.338 865.905 335.276 864.83 335.276H860.304V347.242C860.511 347.325 860.842 347.387 861.296 347.428C861.751 347.469 862.226 347.511 862.722 347.552C863.26 347.552 863.797 347.573 864.334 347.614C864.913 347.614 865.409 347.614 865.822 347.614ZM863.032 328.828C863.611 328.828 864.272 328.807 865.016 328.766C865.802 328.725 866.442 328.663 866.938 328.58C868.509 328.084 869.852 327.34 870.968 326.348C872.126 325.356 872.704 324.054 872.704 322.442C872.704 321.367 872.498 320.479 872.084 319.776C871.671 319.073 871.113 318.515 870.41 318.102C869.749 317.689 868.984 317.399 868.116 317.234C867.248 317.069 866.339 316.986 865.388 316.986C864.314 316.986 863.322 317.007 862.412 317.048C861.503 317.089 860.8 317.151 860.304 317.234V328.828H863.032ZM916.217 354H888.751V310.6H897.245V346.436H916.217V354ZM920.599 310.6H946.329V318.164H929.093V328.27H944.779V335.834H929.093V346.436H946.639V354H920.599V310.6ZM971.715 342.344C971.715 341.021 971.219 339.947 970.227 339.12C969.277 338.293 968.057 337.549 966.569 336.888C965.123 336.185 963.531 335.483 961.795 334.78C960.101 334.036 958.509 333.147 957.021 332.114C955.575 331.039 954.355 329.717 953.363 328.146C952.413 326.575 951.937 324.571 951.937 322.132C951.937 320.024 952.289 318.205 952.991 316.676C953.694 315.105 954.686 313.803 955.967 312.77C957.29 311.737 958.84 310.972 960.617 310.476C962.395 309.98 964.379 309.732 966.569 309.732C969.091 309.732 971.467 309.959 973.699 310.414C975.931 310.827 977.771 311.447 979.217 312.274L976.551 319.404C975.642 318.825 974.278 318.309 972.459 317.854C970.641 317.358 968.677 317.11 966.569 317.11C964.585 317.11 963.056 317.503 961.981 318.288C960.948 319.073 960.431 320.127 960.431 321.45C960.431 322.69 960.907 323.723 961.857 324.55C962.849 325.377 964.069 326.141 965.515 326.844C967.003 327.547 968.595 328.27 970.289 329.014C972.025 329.758 973.617 330.667 975.063 331.742C976.551 332.775 977.771 334.077 978.721 335.648C979.713 337.177 980.209 339.099 980.209 341.414C980.209 343.729 979.817 345.733 979.031 347.428C978.287 349.081 977.213 350.466 975.807 351.582C974.443 352.698 972.769 353.525 970.785 354.062C968.843 354.599 966.693 354.868 964.337 354.868C961.237 354.868 958.509 354.579 956.153 354C953.797 353.421 952.061 352.843 950.945 352.264L953.673 345.01C954.128 345.258 954.707 345.527 955.409 345.816C956.153 346.105 956.98 346.374 957.889 346.622C958.799 346.87 959.749 347.077 960.741 347.242C961.775 347.407 962.829 347.49 963.903 347.49C966.425 347.49 968.347 347.077 969.669 346.25C971.033 345.382 971.715 344.08 971.715 342.344Z" fill="black"/>
<path d="M1136.34 342.344C1136.34 341.021 1135.85 339.947 1134.85 339.12C1133.9 338.293 1132.68 337.549 1131.2 336.888C1129.75 336.185 1128.16 335.483 1126.42 334.78C1124.73 334.036 1123.14 333.147 1121.65 332.114C1120.2 331.039 1118.98 329.717 1117.99 328.146C1117.04 326.575 1116.56 324.571 1116.56 322.132C1116.56 320.024 1116.92 318.205 1117.62 316.676C1118.32 315.105 1119.31 313.803 1120.59 312.77C1121.92 311.737 1123.47 310.972 1125.24 310.476C1127.02 309.98 1129.01 309.732 1131.2 309.732C1133.72 309.732 1136.09 309.959 1138.33 310.414C1140.56 310.827 1142.4 311.447 1143.84 312.274L1141.18 319.404C1140.27 318.825 1138.91 318.309 1137.09 317.854C1135.27 317.358 1133.3 317.11 1131.2 317.11C1129.21 317.11 1127.68 317.503 1126.61 318.288C1125.58 319.073 1125.06 320.127 1125.06 321.45C1125.06 322.69 1125.53 323.723 1126.48 324.55C1127.48 325.377 1128.7 326.141 1130.14 326.844C1131.63 327.547 1133.22 328.27 1134.92 329.014C1136.65 329.758 1138.24 330.667 1139.69 331.742C1141.18 332.775 1142.4 334.077 1143.35 335.648C1144.34 337.177 1144.84 339.099 1144.84 341.414C1144.84 343.729 1144.44 345.733 1143.66 347.428C1142.91 349.081 1141.84 350.466 1140.43 351.582C1139.07 352.698 1137.4 353.525 1135.41 354.062C1133.47 354.599 1131.32 354.868 1128.96 354.868C1125.86 354.868 1123.14 354.579 1120.78 354C1118.42 353.421 1116.69 352.843 1115.57 352.264L1118.3 345.01C1118.76 345.258 1119.33 345.527 1120.04 345.816C1120.78 346.105 1121.61 346.374 1122.52 346.622C1123.43 346.87 1124.38 347.077 1125.37 347.242C1126.4 347.407 1127.46 347.49 1128.53 347.49C1131.05 347.49 1132.97 347.077 1134.3 346.25C1135.66 345.382 1136.34 344.08 1136.34 342.344ZM1151.36 310.6H1159.86V354H1151.36V310.6ZM1178.96 331.37L1175.55 324.55H1175.24L1176.24 331.37V354H1168.18V310.29H1174.38L1190.81 333.416L1194.09 340.05H1194.4L1193.41 333.416V310.6H1201.47V354.31H1195.27L1178.96 331.37ZM1224.24 331.37H1240.42V350.714C1238.68 352.161 1236.6 353.215 1234.16 353.876C1231.76 354.537 1229.38 354.868 1227.03 354.868C1224.26 354.868 1221.67 354.434 1219.28 353.566C1216.92 352.698 1214.88 351.355 1213.14 349.536C1211.4 347.676 1210.04 345.32 1209.05 342.468C1208.06 339.616 1207.56 336.227 1207.56 332.3C1207.56 328.208 1208.14 324.736 1209.3 321.884C1210.49 318.991 1212.04 316.655 1213.95 314.878C1215.89 313.059 1218.06 311.757 1220.46 310.972C1222.85 310.145 1225.29 309.732 1227.77 309.732C1230.25 309.732 1232.42 309.918 1234.28 310.29C1236.18 310.662 1237.69 311.055 1238.81 311.468L1237.07 318.598C1236.04 318.185 1234.88 317.875 1233.6 317.668C1232.32 317.42 1230.69 317.296 1228.7 317.296C1226.92 317.296 1225.29 317.565 1223.8 318.102C1222.32 318.639 1221.01 319.528 1219.9 320.768C1218.82 321.967 1217.98 323.517 1217.36 325.418C1216.78 327.319 1216.49 329.634 1216.49 332.362C1216.49 334.966 1216.78 337.219 1217.36 339.12C1217.93 340.98 1218.74 342.53 1219.77 343.77C1220.81 344.969 1222.01 345.857 1223.37 346.436C1224.77 347.015 1226.26 347.304 1227.83 347.304C1228.91 347.304 1229.96 347.18 1231 346.932C1232.03 346.643 1232.9 346.229 1233.6 345.692V337.508L1224.24 336.516V331.37ZM1274.17 354H1246.7V310.6H1255.2V346.436H1274.17V354ZM1278.55 310.6H1304.28V318.164H1287.05V328.27H1302.73V335.834H1287.05V346.436H1304.59V354H1278.55V310.6ZM1329.67 342.344C1329.67 341.021 1329.17 339.947 1328.18 339.12C1327.23 338.293 1326.01 337.549 1324.52 336.888C1323.08 336.185 1321.48 335.483 1319.75 334.78C1318.05 334.036 1316.46 333.147 1314.97 332.114C1313.53 331.039 1312.31 329.717 1311.32 328.146C1310.37 326.575 1309.89 324.571 1309.89 322.132C1309.89 320.024 1310.24 318.205 1310.94 316.676C1311.65 315.105 1312.64 313.803 1313.92 312.77C1315.24 311.737 1316.79 310.972 1318.57 310.476C1320.35 309.98 1322.33 309.732 1324.52 309.732C1327.04 309.732 1329.42 309.959 1331.65 310.414C1333.88 310.827 1335.72 311.447 1337.17 312.274L1334.5 319.404C1333.6 318.825 1332.23 318.309 1330.41 317.854C1328.59 317.358 1326.63 317.11 1324.52 317.11C1322.54 317.11 1321.01 317.503 1319.93 318.288C1318.9 319.073 1318.38 320.127 1318.38 321.45C1318.38 322.69 1318.86 323.723 1319.81 324.55C1320.8 325.377 1322.02 326.141 1323.47 326.844C1324.96 327.547 1326.55 328.27 1328.24 329.014C1329.98 329.758 1331.57 330.667 1333.02 331.742C1334.5 332.775 1335.72 334.077 1336.67 335.648C1337.67 337.177 1338.16 339.099 1338.16 341.414C1338.16 343.729 1337.77 345.733 1336.98 347.428C1336.24 349.081 1335.17 350.466 1333.76 351.582C1332.4 352.698 1330.72 353.525 1328.74 354.062C1326.8 354.599 1324.65 354.868 1322.29 354.868C1319.19 354.868 1316.46 354.579 1314.11 354C1311.75 353.421 1310.01 352.843 1308.9 352.264L1311.63 345.01C1312.08 345.258 1312.66 345.527 1313.36 345.816C1314.11 346.105 1314.93 346.374 1315.84 346.622C1316.75 346.87 1317.7 347.077 1318.69 347.242C1319.73 347.407 1320.78 347.49 1321.86 347.49C1324.38 347.49 1326.3 347.077 1327.62 346.25C1328.99 345.382 1329.67 344.08 1329.67 342.344Z" fill="black"/>
<circle cx="143.5" cy="219.5" r="39.5" fill="#D9D9D9" stroke="black" stroke-width="14"/>
<circle cx="851.5" cy="229.5" r="46.5" fill="#922A2A"/>
<circle cx="1225.5" cy="229.5" r="39" fill="#E7BDA6" stroke="#7D2222" stroke-width="15"/>
<rect x="474" y="134" width="53" height="162" fill="#101010"/>
</g>
<defs>
<clipPath id="clip0_1064_2">
<rect width="1336" height="439" fill="white"/>
</clipPath>
</defs>
</svg>
